<?xml version="1.0" encoding="UTF-8" standalone="no"?>
<!-- Generator: Adobe Illustrator 16.0.0, SVG Export Plug-In . SVG Version: 6.00 Build 0)  -->

<svg
   xmlns:dc="http://purl.org/dc/elements/1.1/"
   xmlns:cc="http://creativecommons.org/ns#"
   xmlns:rdf="http://www.w3.org/1999/02/22-rdf-syntax-ns#"
   xmlns:svg="http://www.w3.org/2000/svg"
   xmlns="http://www.w3.org/2000/svg"
   xmlns:sodipodi="http://sodipodi.sourceforge.net/DTD/sodipodi-0.dtd"
   xmlns:inkscape="http://www.inkscape.org/namespaces/inkscape"
   version="1.1"
   id="Layer_1"
   x="0px"
   y="0px"
   width="480px"
   height="480px"
   viewBox="0 0 480 480"
   enable-background="new 0 0 480 480"
   xml:space="preserve"
   inkscape:version="0.48.4 r9939"
   sodipodi:docname="logo.svg"><metadata
     id="metadata37"><rdf:RDF><cc:Work
         rdf:about=""><dc:format>image/svg+xml</dc:format><dc:type
           rdf:resource="http://purl.org/dc/dcmitype/StillImage" /></cc:Work></rdf:RDF></metadata><defs
     id="defs35" /><sodipodi:namedview
     pagecolor="#ffffff"
     bordercolor="#666666"
     borderopacity="1"
     objecttolerance="10"
     gridtolerance="10"
     guidetolerance="10"
     inkscape:pageopacity="0"
     inkscape:pageshadow="2"
     inkscape:window-width="1920"
     inkscape:window-height="1028"
     id="namedview33"
     showgrid="false"
     inkscape:zoom="0.98333333"
     inkscape:cx="57.703499"
     inkscape:cy="133.21219"
     inkscape:window-x="0"
     inkscape:window-y="25"
     inkscape:window-maximized="1"
     inkscape:current-layer="Layer_1" /><g
     id="g3028"
     transform="translate(4.9986343e-4,-8.9988935)"><g
       transform="matrix(0.86652686,0,0,0.86652686,32.033487,32.033406)"
       id="g5"><polygon
         points="240,389.955 402.047,296.594 401.666,109.487 240,203.078 "
         id="polygon7"
         style="fill:#f2f2f2" /><polygon
         points="251.378,22.665 239.802,16.009 78,109.563 78,296.341 89.605,303.03 89.596,116.219 "
         id="polygon9"
         style="fill:#f2f2f2" /></g><g
       transform="matrix(0.86652686,0,0,0.86652686,32.033487,50.033406)"
       id="g11"><path
         d="m 56.942,449.194 v -27.379 c 3.363,0 6.904,0 10.209,0 v 27.557 c 0,9.086 -7.966,14.338 -16.464,14.338 -8.438,0 -16.404,-5.252 -16.404,-14.338 v -27.557 c 3.305,0 6.786,0 10.091,0 v 27.379 c 0,3.363 3.246,5.016 6.313,5.016 3.069,0 6.255,-1.652 6.255,-5.016 z"
         id="path13"
         inkscape:connector-curvature="0"
         style="fill:#f2f2f2" /><path
         d="m 97.537,450.788 c 0,-2.892 -3.423,-3.364 -7.553,-3.6 -8.969,-0.649 -14.87,-3.718 -14.988,-12.688 -0.354,-17.82 31.747,-17.82 31.51,0 -3.717,0 -6.432,0 -10.031,0 0,-5.487 -11.094,-5.016 -11.448,-0.118 -0.236,3.128 2.833,3.776 6.55,4.19 8.203,0.886 16.228,1.947 16.228,12.273 0,17.348 -33.634,17.82 -33.398,-0.354 3.541,0 6.609,0 10.208,0 -10e-4,5.253 12.922,5.135 12.922,0.297 z"
         id="path15"
         inkscape:connector-curvature="0"
         style="fill:#f2f2f2" /><path
         d="m 115.531,463.12 c 0,-13.748 0,-27.498 0,-41.305 5.959,0 12.097,0 18.174,0 19.767,0.059 19.767,30.742 0,30.742 h -7.612 v 10.563 c -3.54,0 -7.08,0 -10.562,0 z m 18.115,-31.865 c -2.478,-0.059 -5.133,0 -7.553,0 0,3.365 0,8.438 0,11.803 h 7.553 c 5.784,0 6.137,-11.743 0,-11.803 z"
         id="path17"
         inkscape:connector-curvature="0"
         style="fill:#f2f2f2" /><path
         d="m 175.125,421.283 c 8.32,0.059 16.995,4.367 19,14.634 H 183.74 c -1.711,-3.541 -4.426,-4.956 -8.615,-4.956 -6.667,0 -10.267,5.192 -10.267,11.507 0,6.845 4.012,11.329 10.267,11.329 4.249,0 6.962,-1.121 8.851,-5.075 h -8.792 v -9.146 h 19.531 c 0.236,4.13 0.236,8.084 -1.18,12.097 -2.95,8.614 -10.798,11.919 -18.411,11.919 -10.503,0 -21.125,-7.022 -21.184,-21.124 0.06,-14.104 10.682,-21.185 21.185,-21.185 z"
         id="path19"
         inkscape:connector-curvature="0"
         style="fill:#f2f2f2" /><path
         d="m 226.931,457.928 h -16.287 l -2.418,5.192 h -10.327 v -1.534 l 18.587,-40.303 h 4.544 l 18.646,40.303 v 1.534 H 229.35 l -2.419,-5.192 z m -8.202,-19.946 -4.603,10.857 h 9.323 l -4.72,-10.857 z"
         id="path21"
         inkscape:connector-curvature="0"
         style="fill:#f2f2f2" /><path
         d="m 281.569,421.696 h 3.777 v 41.424 c -3.6,0 -7.199,0 -10.799,0 v -18.41 l -8.792,9.204 h -1.18 l -8.733,-9.204 v 18.41 c -3.599,0 -7.199,0 -10.798,0 v -41.424 h 3.894 l 16.168,17.938 16.463,-17.938 z"
         id="path23"
         inkscape:connector-curvature="0"
         style="fill:#f2f2f2" /><path
         d="m 321.631,431.255 c -6.136,0 -9.205,0 -15.283,0 v 5.842 h 14.044 c 0,3.128 0,6.256 0,9.384 h -14.044 c 0,2.418 0,4.779 0,7.258 6.078,0 9.618,0 15.815,0 0,3.067 0,6.255 0,9.382 -9.679,0 -16.759,0 -26.318,0 0,-13.808 0,-27.615 0,-41.305 9.56,0 16.11,0 25.786,0 0,3.067 0,6.253 0,9.439 z"
         id="path25"
         inkscape:connector-curvature="0"
         style="fill:#f2f2f2" /><path
         d="m 346.825,463.12 h -15.577 v -41.305 h 15.577 c 26.906,0.118 26.906,41.188 0,41.305 z m -5.015,-9.618 h 5.016 c 13.158,0 13.158,-22.068 0,-22.068 h -5.016 v 22.068 z"
         id="path27"
         inkscape:connector-curvature="0"
         style="fill:#e0401b" /><path
         d="m 400.813,431.255 c -6.136,0 -9.205,0 -15.282,0 v 5.842 h 14.045 c 0,3.128 0,6.256 0,9.384 h -14.045 c 0,2.418 0,4.779 0,7.258 6.077,0 9.617,0 15.815,0 0,3.067 0,6.255 0,9.382 -9.679,0 -16.759,0 -26.319,0 0,-13.808 0,-27.615 0,-41.305 9.561,0 16.111,0 25.786,0 0,3.067 0,6.253 0,9.439 z"
         id="path29"
         inkscape:connector-curvature="0"
         style="fill:#e0401b" /><path
         d="m 425.83,445.239 h 0.296 l 9.44,-23.424 h 10.15 v 1.592 l -17.525,40.185 h -4.485 l -17.702,-40.185 v -1.592 h 10.148 l 9.678,23.424 z"
         id="path31"
         inkscape:connector-curvature="0"
         style="fill:#e0401b" /></g></g></svg>